<svg xmlns="http://www.w3.org/2000/svg" width="11" height="10" viewBox="0 0 11 10">
    <path fill="#FFC71E" fill-rule="nonzero" d="M10.427 3.778c-.05-.15-.207-.411-.715-.468l-2.679-.298-.025-.014L5.892.535C5.682.069 5.385 0 5.227 0c-.158 0-.455.07-.666.535L3.451 2.99c-.006.007-.023.02-.022.02l-2.687.3c-.508.057-.666.317-.715.468-.048.15-.074.454.303.798L2.322 6.39c.005.007.011.027.013.027l-.546 2.648c-.103.5.097.731.224.824.07.05.187.11.354.11.155 0 .322-.05.5-.151l2.342-1.334a.081.081 0 0 1 .018-.002h.012l2.349 1.335c.176.101.344.152.499.152.167 0 .284-.06.353-.11.128-.093.327-.323.225-.824l-.545-2.64c0-.008.007-.028.006-.028l1.997-1.822c.378-.344.352-.648.304-.798z"/>
</svg>
